<svg width="17" height="16" viewBox="0 0 17 16" fill="none" xmlns="http://www.w3.org/2000/svg">
<path d="M13.9193 5.33337H3.2526C2.88441 5.33337 2.58594 5.63185 2.58594 6.00004V7.33337C2.58594 7.70156 2.88441 8.00004 3.2526 8.00004H13.9193C14.2875 8.00004 14.5859 7.70156 14.5859 7.33337V6.00004C14.5859 5.63185 14.2875 5.33337 13.9193 5.33337Z" stroke="white" stroke-width="1.33333" stroke-linecap="round" stroke-linejoin="round"/>
<path d="M8.58594 5.33337V14" stroke="white" stroke-width="1.33333" stroke-linecap="round" stroke-linejoin="round"/>
<path d="M13.2523 8V12.6667C13.2523 13.0203 13.1118 13.3594 12.8618 13.6095C12.6117 13.8595 12.2726 14 11.9189 14H5.25228C4.89866 14 4.55952 13.8595 4.30947 13.6095C4.05942 13.3594 3.91895 13.0203 3.91895 12.6667V8" stroke="white" stroke-width="1.33333" stroke-linecap="round" stroke-linejoin="round"/>
<path d="M5.58561 5.33338C5.14358 5.33338 4.71966 5.15779 4.4071 4.84523C4.09454 4.53266 3.91895 4.10874 3.91895 3.66671C3.91895 3.22469 4.09454 2.80076 4.4071 2.4882C4.71966 2.17564 5.14358 2.00005 5.58561 2.00005C6.22874 1.98884 6.85896 2.30089 7.3941 2.89549C7.92924 3.49009 8.34446 4.33965 8.58561 5.33338C8.82676 4.33965 9.24198 3.49009 9.77712 2.89549C10.3123 2.30089 10.9425 1.98884 11.5856 2.00005C12.0276 2.00005 12.4516 2.17564 12.7641 2.4882C13.0767 2.80076 13.2523 3.22469 13.2523 3.66671C13.2523 4.10874 13.0767 4.53266 12.7641 4.84523C12.4516 5.15779 12.0276 5.33338 11.5856 5.33338" stroke="white" stroke-width="1.33333" stroke-linecap="round" stroke-linejoin="round"/>
</svg>
